<svg width="64" height="64" viewBox="0 0 64 64" fill="none" xmlns="http://www.w3.org/2000/svg">
  <!-- Stylized Ribbon Bust -->
  <path d="M32 4C26.477 4 22 8.477 22 14C22 17.5 24 20.5 26.5 22.5C24.5 25.5 22 30 22 36C22 43.7 26.5 50 32 50C37.5 50 42 43.7 42 36C42 30 39.5 25.5 37.5 22.5C40 20.5 42 17.5 42 14C42 8.477 37.523 4 32 4Z" fill="url(#grad1)" />
  <!-- Ribbon Layers for Texture -->
  <path opacity="0.4" d="M22 14C22 8.5 26.5 4 32 4V14L22 14Z" fill="white"/>
  <path opacity="0.3" d="M32 50C26.5 50 22 43.7 22 36C22 33 23 30 24.5 27.5L32 36V50Z" fill="black"/>
  <!-- QR Code Square -->
  <rect x="26" y="28" width="12" height="12" fill="white" rx="1.5" />
  <!-- QR Simple Pattern -->
  <path d="M28 30H30V32H28V30ZM34 30H36V32H34V30ZM28 36H30V38H28V36ZM34 36H36V38H34V36ZM31 33H33V35H31V33Z" fill="#1d4ed8" />
  <defs>
    <linearGradient id="grad1" x1="22" y1="4" x2="42" y2="50" gradientUnits="userSpaceOnUse">
      <stop stop-color="#2563eb" />
      <stop offset="1" stop-color="#1e3a8a" />
    </linearGradient>
  </defs>
</svg>
